M48
; DRILL file {KiCad 9.0.7} date 2026-01-12T21:13:03+0100
; FORMAT={-:-/ absolute / metric / decimal}
; #@! TF.CreationDate,2026-01-12T21:13:03+01:00
; #@! TF.GenerationSoftware,Kicad,Pcbnew,9.0.7
; #@! TF.FileFunction,Plated,1,2,PTH
FMAT,2
METRIC
; #@! TA.AperFunction,Plated,PTH,ComponentDrill
T1C0.787
; #@! TA.AperFunction,Plated,PTH,ComponentDrill
T2C0.800
; #@! TA.AperFunction,Plated,PTH,ComponentDrill
T3C0.900
; #@! TA.AperFunction,Plated,PTH,ComponentDrill
T4C1.000
%
G90
G05
T1
X158.909Y-69.056
X158.909Y-76.676
X161.449Y-69.056
X161.449Y-76.676
X163.989Y-69.056
X163.989Y-76.676
X166.529Y-69.056
X166.529Y-76.676
X169.069Y-69.056
X169.069Y-76.676
X171.609Y-69.056
X171.609Y-76.676
X174.149Y-69.056
X174.149Y-76.676
X176.689Y-69.056
X176.689Y-76.676
T2
X136.112Y-54.329
X136.112Y-66.675
X138.112Y-54.329
X138.112Y-66.675
X148.595Y-55.721
X148.595Y-58.261
X148.595Y-60.801
X148.595Y-63.341
X150.019Y-71.438
X152.4Y-50.006
X152.559Y-71.438
X154.94Y-50.006
X156.215Y-55.721
X156.215Y-58.261
X156.215Y-60.801
X156.215Y-63.341
X185.737Y-61.912
X188.278Y-61.912
T3
X159.544Y-45.244
X162.084Y-45.244
X162.584Y-51.191
X164.379Y-40.106
X165.124Y-51.191
X166.573Y-56.268
X166.919Y-40.106
X169.113Y-56.268
X169.314Y-62.029
X169.575Y-44.76
X171.855Y-62.029
X172.115Y-44.76
X172.818Y-56.308
X175.076Y-40.227
X175.358Y-56.308
X176.888Y-51.513
X177.616Y-40.227
X179.428Y-51.513
X179.73Y-45.546
X182.27Y-45.546
T4
X183.719Y-69.031
X183.719Y-76.175
M30
